<svg preserveAspectRatio="none" overflow="visible" style="display: block;" width="92.3569" height="34.7047" viewBox="0 0 92.3569 34.7047" fill="none" xmlns="http://www.w3.org/2000/svg">
<g id="Group">
<path id="Vector" d="M7.88355 26.9147H23.0892V33.9588H1.17059e-05V0.745848H7.88355V26.9147Z" fill="#2E9437"/>
<path id="Vector_2" d="M22.9475 17.3523C22.9475 6.85699 29.8045 0 39.9737 0C50.1429 0 56.9999 6.85699 56.9999 17.3523C56.9999 27.8477 50.0975 34.7047 39.9737 34.7047C29.85 34.7047 22.9475 27.8477 22.9475 17.3523ZM48.8357 17.3523C48.8357 10.776 45.2909 6.85699 39.9737 6.85699C34.6566 6.85699 31.1572 10.776 31.1572 17.3523C31.1572 23.9286 34.6566 27.8477 39.9737 27.8477C45.2909 27.8477 48.8357 23.9286 48.8357 17.3523Z" fill="#2E9437"/>
<path id="Vector_3" d="M77.0576 15.4383H92.3569V33.9561H86.8526L85.9196 29.572C83.6794 32.9777 79.763 34.702 75.1436 34.702C65.5357 34.702 59.2375 27.8931 59.2375 17.3497C59.2375 6.8062 65.5812 0 76.0765 0C84.7059 0 90.8625 4.57133 91.9345 11.9416H83.8638C82.9308 8.7684 80.2255 6.81155 76.122 6.81155C70.7112 6.81155 67.4471 10.776 67.4471 17.3523C67.4471 23.9286 70.8048 27.8931 76.4962 27.8931C80.5543 27.8931 83.8665 25.4203 84.4252 21.5948H77.0549V15.4383H77.0576Z" fill="#2E9437"/>
</g>
</svg>
