<svg preserveAspectRatio="none" overflow="visible" style="display: block;" width="21.4701" height="21.5001" viewBox="0 0 21.4701 21.5001" fill="none" xmlns="http://www.w3.org/2000/svg">
<path id="Vector (Stroke)" fill-rule="evenodd" clip-rule="evenodd" d="M4.35032 1.5C4.06146 1.50811 3.77706 1.57356 3.51368 1.69259C3.24785 1.81272 3.00883 1.98499 2.81079 2.19918L2.79066 2.22095L2.76888 2.24106C2.34858 2.62911 2.02004 3.10594 1.80714 3.63687C1.6011 4.16052 1.49688 4.71868 1.50007 5.2814C1.51764 6.30691 1.74064 7.3185 2.1559 8.25638L2.15762 8.26027C2.66108 9.41504 3.29075 10.5106 4.03516 11.5268L4.03585 11.5278C4.85908 12.6553 5.76648 13.7189 6.75028 14.7095C7.7448 15.6965 8.81201 16.6075 9.9429 17.4347L9.9453 17.4364C10.9679 18.1907 12.0726 18.8265 13.2384 19.3319L13.2474 19.3358C14.1799 19.7546 15.1875 19.9806 16.2095 20.0001C16.7763 20.0032 17.3379 19.8936 17.8619 19.6776C18.3852 19.4574 18.8519 19.1214 19.2268 18.6949L19.2347 18.6858C19.4607 18.4369 19.6483 18.1557 19.7912 17.8513L19.7938 17.8458C19.9082 17.6071 19.9684 17.346 19.9701 17.0813C19.9684 16.9167 19.9355 16.7539 19.8732 16.6016C19.8128 16.4738 19.7181 16.3652 19.5997 16.2878L19.5877 16.2799L16.2692 13.9239C16.2686 13.9235 16.2681 13.9231 16.2675 13.9227C16.0913 13.7991 15.9027 13.6942 15.7049 13.6095L15.7038 13.609C15.6037 13.566 15.4964 13.5426 15.3875 13.5401C15.28 13.542 15.175 13.5737 15.0843 13.6318L15.0662 13.6434L15.0474 13.6539C14.846 13.767 14.6627 13.9097 14.5035 14.077L14.4953 14.0856L13.7332 14.8377C13.6103 14.9637 13.463 15.0636 13.3003 15.131C13.1392 15.1978 12.9663 15.2315 12.792 15.2301C12.6203 15.2325 12.4495 15.2041 12.2878 15.1463L12.266 15.1385L12.2447 15.1294C12.2034 15.1117 12.1651 15.0941 12.1379 15.0817L12.1301 15.0781C12.0977 15.0632 12.0867 15.0584 12.0816 15.0564L12.0343 15.0375L11.99 15.0123C11.4865 14.7266 11.0138 14.3898 10.5793 14.0072C10.0317 13.5419 9.49901 13.0395 8.95476 12.5053L8.94971 12.5003L8.94475 12.4953C8.41232 11.9526 7.92242 11.4116 7.46551 10.8837C7.0849 10.4527 6.74622 9.98634 6.4541 9.49102L6.41373 9.42258L6.38869 9.34748C6.38868 9.34748 6.38613 9.34046 6.37313 9.30974C6.37204 9.30715 6.37086 9.30438 6.36961 9.30144C6.35715 9.27205 6.33747 9.22563 6.31786 9.17336L6.30455 9.13787L6.29489 9.10121C6.25971 8.96777 6.24133 8.83046 6.24017 8.69249C6.23603 8.51881 6.26716 8.34604 6.33171 8.18466C6.39624 8.02333 6.49279 7.87682 6.6155 7.75394L7.37876 6.96054L7.38823 6.95137C7.55771 6.78716 7.7045 6.60106 7.8247 6.39799L7.83032 6.38849L7.83622 6.37916C7.89395 6.28787 7.92623 6.1829 7.92985 6.07511C7.9252 5.96945 7.90041 5.8656 7.85678 5.76915L7.85311 5.76103L7.84963 5.75282C7.76742 5.55896 7.66258 5.37549 7.53729 5.20624L7.5328 5.20016L5.2025 1.91565C5.11167 1.78385 4.98667 1.67929 4.84084 1.61328L4.82973 1.60825C4.67977 1.53741 4.51611 1.50041 4.35032 1.5ZM5.46499 0.249296C5.11219 0.0836329 4.72694 -0.00152442 4.33714 2.06547e-05L4.32949 5.09339e-05L4.32185 0.000237079C3.82956 0.0122267 3.34468 0.122897 2.89594 0.325693C2.45639 0.524339 2.06026 0.807422 1.73003 1.15875C1.15548 1.69503 0.706054 2.3514 0.413842 3.08125L0.41232 3.08508C0.135119 3.78862 -0.00479825 4.53873 0.000125575 5.2949L0.000213372 5.30249C0.02062 6.52934 0.286959 7.73963 0.783456 8.8617C1.33091 10.117 2.01549 11.3079 2.82471 12.4127C3.69305 13.602 4.65023 14.7239 5.68802 15.7686L5.69175 15.7723C6.73974 16.8126 7.86436 17.7726 9.05612 18.6445C10.1683 19.4646 11.3696 20.1563 12.6373 20.7062C13.7547 21.2073 14.9618 21.4772 16.1862 21.4999L16.1951 21.5C16.9638 21.5051 17.7258 21.3566 18.4363 21.0633L18.4406 21.0615C19.1723 20.7541 19.8248 20.2851 20.3494 19.6897C20.6734 19.332 20.9424 18.9281 21.1478 18.4914C21.3581 18.0516 21.4682 17.5705 21.4701 17.083L21.4701 17.0747C21.4675 16.7088 21.3933 16.347 21.2516 16.0096L21.2472 15.9991L21.2424 15.9887C21.0666 15.6034 20.7864 15.2751 20.4337 15.041L17.1343 12.6985L17.131 12.6962C16.8695 12.5125 16.5895 12.3566 16.2958 12.2307C16.0127 12.1091 15.7085 12.0443 15.4005 12.0401L15.3931 12.04L15.3857 12.04C14.9997 12.0423 14.6222 12.1518 14.2951 12.3561C13.9739 12.5388 13.681 12.7671 13.4254 13.034L12.7419 13.7084C12.728 13.7021 12.7115 13.6946 12.6935 13.6867C12.2917 13.4554 11.914 13.1844 11.5663 12.8776L11.561 12.8729L11.5555 12.8683C11.0466 12.4362 10.5426 11.9618 10.0105 11.4397C9.50583 10.9251 9.03817 10.4088 8.59724 9.89923L8.59209 9.89334C8.28782 9.54907 8.01564 9.17777 7.77892 8.78409C7.77056 8.76312 7.76291 8.74496 7.75699 8.73097L8.44191 8.01902C8.70066 7.76665 8.92533 7.48155 9.11022 7.17097C9.31501 6.84311 9.42571 6.46515 9.43006 6.07846L9.43022 6.06436L9.42985 6.05025C9.42174 5.74281 9.35288 5.44005 9.22727 5.15939C9.10045 4.86202 8.93949 4.58039 8.74764 4.32018L6.43448 1.05982C6.19026 0.70722 5.85528 0.427172 5.46499 0.249296Z" fill="#2E9437"/>
</svg>
